<svg width="324" height="124" viewBox="0 0 324 124" fill="none" xmlns="http://www.w3.org/2000/svg">
<g filter="url(#filter0_d_4_2)">
<rect width="200.347" height="75.5663" rx="10" transform="matrix(1 -0.000467279 0.000449773 1 4 0.0936127)" fill="#1B4D89"/>
</g>
<path d="M85.392 29.672V49H81.808V29.672H74.8V26.664H92.4V29.672H85.392ZM103.747 49.384C102.339 49.384 101.113 49.128 100.067 48.616C99.0435 48.0827 98.1902 47.3253 97.5075 46.344C96.8462 45.3627 96.3555 44.1573 96.0355 42.728C95.7155 41.2987 95.5555 39.6667 95.5555 37.832C95.5555 36.0187 95.7155 34.3973 96.0355 32.968C96.3555 31.5173 96.8462 30.3013 97.5075 29.32C98.1902 28.3387 99.0435 27.592 100.067 27.08C101.113 26.5467 102.339 26.28 103.747 26.28C105.155 26.28 106.372 26.5467 107.396 27.08C108.441 27.592 109.294 28.3387 109.955 29.32C110.638 30.3013 111.139 31.5173 111.459 32.968C111.78 34.3973 111.94 36.0187 111.94 37.832C111.94 39.6667 111.78 41.2987 111.459 42.728C111.139 44.1573 110.638 45.3627 109.955 46.344C109.294 47.3253 108.441 48.0827 107.396 48.616C106.372 49.128 105.155 49.384 103.747 49.384ZM103.747 46.408C105.347 46.408 106.478 45.8107 107.139 44.616C107.801 43.4 108.131 41.7573 108.131 39.688V35.944C108.131 33.896 107.801 32.2747 107.139 31.08C106.478 29.864 105.347 29.256 103.747 29.256C102.147 29.256 101.017 29.864 100.355 31.08C99.6942 32.2747 99.3635 33.896 99.3635 35.944V39.72C99.3635 41.768 99.6942 43.4 100.355 44.616C101.017 45.8107 102.147 46.408 103.747 46.408ZM116.919 26.664H123.575C126.434 26.664 128.546 27.6133 129.911 29.512C131.298 31.4107 131.991 34.184 131.991 37.832C131.991 41.48 131.298 44.2533 129.911 46.152C128.546 48.0507 126.434 49 123.575 49H116.919V26.664ZM123.351 46.056C124.994 46.056 126.21 45.512 126.999 44.424C127.81 43.3147 128.215 41.736 128.215 39.688V35.976C128.215 33.928 127.81 32.36 126.999 31.272C126.21 30.1627 124.994 29.608 123.351 29.608H120.471V46.056H123.351ZM144.043 49.384C142.635 49.384 141.408 49.128 140.363 48.616C139.339 48.0827 138.485 47.3253 137.803 46.344C137.141 45.3627 136.651 44.1573 136.331 42.728C136.011 41.2987 135.851 39.6667 135.851 37.832C135.851 36.0187 136.011 34.3973 136.331 32.968C136.651 31.5173 137.141 30.3013 137.803 29.32C138.485 28.3387 139.339 27.592 140.363 27.08C141.408 26.5467 142.635 26.28 144.043 26.28C145.451 26.28 146.667 26.5467 147.691 27.08C148.736 27.592 149.589 28.3387 150.251 29.32C150.933 30.3013 151.435 31.5173 151.755 32.968C152.075 34.3973 152.235 36.0187 152.235 37.832C152.235 39.6667 152.075 41.2987 151.755 42.728C151.435 44.1573 150.933 45.3627 150.251 46.344C149.589 47.3253 148.736 48.0827 147.691 48.616C146.667 49.128 145.451 49.384 144.043 49.384ZM144.043 46.408C145.643 46.408 146.773 45.8107 147.435 44.616C148.096 43.4 148.427 41.7573 148.427 39.688V35.944C148.427 33.896 148.096 32.2747 147.435 31.08C146.773 29.864 145.643 29.256 144.043 29.256C142.443 29.256 141.312 29.864 140.651 31.08C139.989 32.2747 139.659 33.896 139.659 35.944V39.72C139.659 41.768 139.989 43.4 140.651 44.616C141.312 45.8107 142.443 46.408 144.043 46.408Z" fill="white"/>
<g filter="url(#filter1_d_4_2)">
<rect width="200.347" height="75.5663" rx="10" transform="matrix(1 -0.000467279 0.000449773 1 119.619 39.676)" fill="#2D5A27"/>
</g>
<rect x="30.5" y="23.5" width="28.5383" height="29.1848" stroke="#CCCCCC" stroke-opacity="0.7" stroke-width="5"/>
<rect x="144.5" y="63.5" width="28.5383" height="29.1848" stroke="#CCCCCC" stroke-opacity="0.7" stroke-width="5"/>
<path d="M190.624 66.664H197.28C200.139 66.664 202.251 67.6133 203.616 69.512C205.003 71.4107 205.696 74.184 205.696 77.832C205.696 81.48 205.003 84.2533 203.616 86.152C202.251 88.0507 200.139 89 197.28 89H190.624V66.664ZM197.056 86.056C198.699 86.056 199.915 85.512 200.704 84.424C201.515 83.3147 201.92 81.736 201.92 79.688V75.976C201.92 73.928 201.515 72.36 200.704 71.272C199.915 70.1627 198.699 69.608 197.056 69.608H194.176V86.056H197.056ZM219.788 89.384C218.38 89.384 217.153 89.128 216.108 88.616C215.084 88.0827 214.23 87.3253 213.548 86.344C212.886 85.3627 212.396 84.1573 212.076 82.728C211.756 81.2987 211.596 79.6667 211.596 77.832C211.596 76.0187 211.756 74.3973 212.076 72.968C212.396 71.5173 212.886 70.3013 213.548 69.32C214.23 68.3387 215.084 67.592 216.108 67.08C217.153 66.5467 218.38 66.28 219.788 66.28C221.196 66.28 222.412 66.5467 223.436 67.08C224.481 67.592 225.334 68.3387 225.996 69.32C226.678 70.3013 227.18 71.5173 227.5 72.968C227.82 74.3973 227.98 76.0187 227.98 77.832C227.98 79.6667 227.82 81.2987 227.5 82.728C227.18 84.1573 226.678 85.3627 225.996 86.344C225.334 87.3253 224.481 88.0827 223.436 88.616C222.412 89.128 221.196 89.384 219.788 89.384ZM219.788 86.408C221.388 86.408 222.518 85.8107 223.18 84.616C223.841 83.4 224.172 81.7573 224.172 79.688V75.944C224.172 73.896 223.841 72.2747 223.18 71.08C222.518 69.864 221.388 69.256 219.788 69.256C218.188 69.256 217.057 69.864 216.396 71.08C215.734 72.2747 215.404 73.896 215.404 75.944V79.72C215.404 81.768 215.734 83.4 216.396 84.616C217.057 85.8107 218.188 86.408 219.788 86.408ZM238.103 71.816H237.815V89H234.679V66.664H239.287L245.847 83.848H246.135V66.664H249.271V89H244.663L238.103 71.816ZM257.315 89V66.664H271.299V69.672H260.899V76.168H270.915V79.176H260.899V85.992H271.299V89H257.315Z" fill="white"/>
<rect x="149" y="68" width="19.5" height="20" fill="#CCCCCC" fill-opacity="0.7"/>
<defs>
<filter id="filter0_d_4_2" x="0.00450134" y="0.00466919" width="208.372" height="83.6506" filterUnits="userSpaceOnUse" color-interpolation-filters="sRGB">
<feFlood flood-opacity="0" result="BackgroundImageFix"/>
<feColorMatrix in="SourceAlpha" type="matrix" values="0 0 0 0 0 0 0 0 0 0 0 0 0 0 0 0 0 0 127 0" result="hardAlpha"/>
<feOffset dy="4"/>
<feGaussianBlur stdDeviation="2"/>
<feComposite in2="hardAlpha" operator="out"/>
<feColorMatrix type="matrix" values="0 0 0 0 0 0 0 0 0 0 0 0 0 0 0 0 0 0 0.25 0"/>
<feBlend mode="normal" in2="BackgroundImageFix" result="effect1_dropShadow_4_2"/>
<feBlend mode="normal" in="SourceGraphic" in2="effect1_dropShadow_4_2" result="shape"/>
</filter>
<filter id="filter1_d_4_2" x="115.623" y="39.587" width="208.372" height="83.6506" filterUnits="userSpaceOnUse" color-interpolation-filters="sRGB">
<feFlood flood-opacity="0" result="BackgroundImageFix"/>
<feColorMatrix in="SourceAlpha" type="matrix" values="0 0 0 0 0 0 0 0 0 0 0 0 0 0 0 0 0 0 127 0" result="hardAlpha"/>
<feOffset dy="4"/>
<feGaussianBlur stdDeviation="2"/>
<feComposite in2="hardAlpha" operator="out"/>
<feColorMatrix type="matrix" values="0 0 0 0 0 0 0 0 0 0 0 0 0 0 0 0 0 0 0.25 0"/>
<feBlend mode="normal" in2="BackgroundImageFix" result="effect1_dropShadow_4_2"/>
<feBlend mode="normal" in="SourceGraphic" in2="effect1_dropShadow_4_2" result="shape"/>
</filter>
</defs>
</svg>
